<svg width="114" height="60" viewBox="0 0 114 60" fill="none" xmlns="http://www.w3.org/2000/svg">
<path fill-rule="evenodd" clip-rule="evenodd" d="M27.9464 24.7153C25.8425 21.0791 21.9986 18.8562 17.6044 18.8562C10.9521 18.8562 5.76521 24.1177 5.76521 31C5.76521 37.8823 10.9521 43.6733 17.6044 43.6733C21.9986 43.6733 25.8425 41.0268 27.9464 37.3906H33.9759C31.4841 44.1766 25.0377 49 17.6044 49C7.9955 49 0 40.9411 0 31C0 21.0589 7.9955 13 17.6044 13C25.0377 13 31.4841 17.9293 33.9759 24.7153L27.9464 24.7153ZM34.6031 28.8824V33.3294H23.2666C22.3789 35.6833 20.157 37.353 17.5545 37.353C14.1712 37.353 11.4285 34.5324 11.4285 31.053C11.4285 27.5735 14.1712 24.753 17.5545 24.753C20.1962 24.753 22.4471 26.4724 23.3072 28.8824H34.6031Z" fill="url(#paint0_linear_228_935)"/>
<path d="M29.4913 31C29.4913 37.9075 24.0639 43.6 17.4982 43.6C17.0332 43.6 16.5739 43.6536 16.1219 43.6V48.9451C16.576 48.9815 17.035 49 17.4982 49C27.5252 49 35.1929 40.8 34.9963 31C34.9963 30.324 34.9601 29.6567 34.8895 29H29.3368C29.4384 29.6503 29.4913 30.3182 29.4913 31Z" fill="url(#paint1_linear_228_935)"/>
<path d="M50.88 28.304C49.8773 28.304 48.992 28.1387 48.224 27.808C47.4667 27.4667 46.8267 27.0133 46.304 26.448C45.792 25.872 45.4027 25.2267 45.136 24.512C44.88 23.7867 44.752 23.0347 44.752 22.256V21.904C44.752 21.168 44.88 20.448 45.136 19.744C45.392 19.04 45.7653 18.4053 46.256 17.84C46.7573 17.2747 47.3707 16.8267 48.096 16.496C48.832 16.1547 49.6747 15.984 50.624 15.984C51.648 15.984 52.5547 16.176 53.344 16.56C54.1333 16.9333 54.768 17.4613 55.248 18.144C55.728 18.816 56.0107 19.6 56.096 20.496H53.808C53.7333 19.9947 53.5467 19.568 53.248 19.216C52.9493 18.8533 52.5707 18.576 52.112 18.384C51.664 18.192 51.168 18.096 50.624 18.096C50.08 18.096 49.584 18.192 49.136 18.384C48.6987 18.576 48.3253 18.848 48.016 19.2C47.7067 19.552 47.4667 19.9733 47.296 20.464C47.136 20.9547 47.056 21.4987 47.056 22.096C47.056 22.7467 47.1467 23.328 47.328 23.84C47.5093 24.352 47.7653 24.7893 48.096 25.152C48.4267 25.504 48.8267 25.776 49.296 25.968C49.7653 26.1493 50.2933 26.24 50.88 26.24C51.6587 26.24 52.3413 26.08 52.928 25.76C53.5147 25.4293 53.9413 25.0027 54.208 24.48L53.808 26.32V23.312H55.904V25.904C55.4027 26.6613 54.72 27.2533 53.856 27.68C52.992 28.096 52 28.304 50.88 28.304ZM50.512 23.76V22.064H56.88V23.76H50.512ZM58.7845 28V16.32H61.0565V28H58.7845ZM63.9713 28V16.24H66.2433V28H63.9713ZM71.1073 28L67.5233 22.912H70.0673L73.7633 28H71.1073ZM65.5713 24.096V22.256H68.5473C68.9633 22.256 69.3206 22.1707 69.6193 22C69.9286 21.8293 70.1686 21.5893 70.3393 21.28C70.5099 20.9707 70.5953 20.6187 70.5953 20.224C70.5953 19.8187 70.5099 19.4613 70.3393 19.152C70.1686 18.8427 69.9286 18.6027 69.6193 18.432C69.3206 18.2613 68.9633 18.176 68.5473 18.176H65.5713V16.24H68.3073C69.2459 16.24 70.0566 16.3787 70.7393 16.656C71.4326 16.9333 71.9659 17.3547 72.3393 17.92C72.7126 18.4853 72.8993 19.1947 72.8993 20.048V20.304C72.8993 21.168 72.7073 21.8773 72.3233 22.432C71.9499 22.9867 71.4219 23.4027 70.7393 23.68C70.0566 23.9573 69.2459 24.096 68.3073 24.096H65.5713ZM74.3349 28L78.3189 16.32H82.0309L86.1269 28H83.7909L80.3189 17.872L81.1349 18.224H79.1349L79.9669 17.872L76.6069 28H74.3349ZM77.1189 24.896L77.8389 22.976H82.5749L83.2789 24.896H77.1189ZM87.8619 28V16.32H90.1339V28H87.8619ZM89.8139 23.136V21.216L94.4859 21.2V23.12L89.8139 23.136ZM89.8139 18.24V16.32H94.7099V18.24H89.8139ZM96.815 28V16.32H99.087V28H96.815ZM98.767 23.136V21.216L103.439 21.2V23.12L98.767 23.136ZM98.767 18.24V16.32H103.663V18.24H98.767ZM105.768 28V16.32H107.992V28H105.768ZM107.672 28V26.08H112.968V28H107.672ZM107.672 23.024V21.104H112.552V23.024H107.672ZM107.672 18.24V16.32H112.84V18.24H107.672ZM45.44 44V32.32H47.712V44H45.44ZM47.392 39.136V37.216L52.064 37.2V39.12L47.392 39.136ZM47.392 34.24V32.32H52.288V34.24H47.392ZM59.2091 44.304C58.1211 44.304 57.2038 44.096 56.4571 43.68C55.7105 43.264 55.1398 42.6827 54.7451 41.936C54.3611 41.1787 54.1691 40.2933 54.1691 39.28V32.32H56.4411V39.408C56.4411 39.9627 56.5478 40.4533 56.7611 40.88C56.9745 41.296 57.2838 41.6213 57.6891 41.856C58.1051 42.08 58.6118 42.192 59.2091 42.192C59.7958 42.192 60.2918 42.08 60.6971 41.856C61.1131 41.6213 61.4225 41.296 61.6251 40.88C61.8385 40.464 61.9451 39.9733 61.9451 39.408V32.32H64.2171V39.28C64.2171 40.2933 64.0251 41.1787 63.6411 41.936C63.2678 42.6827 62.7078 43.264 61.9611 43.68C61.2145 44.096 60.2971 44.304 59.2091 44.304ZM66.8775 44V32.32H70.6055L75.5175 42.112H76.0455L75.7255 42.4V32.32H77.8695V44H74.1255L69.2135 34.208H68.6695L68.9895 33.92V44H66.8775ZM82.7045 44.064V41.952H85.1205C85.7285 41.952 86.2672 41.8613 86.7365 41.68C87.2165 41.488 87.6218 41.2213 87.9525 40.88C88.2832 40.5387 88.5338 40.1387 88.7045 39.68C88.8858 39.2107 88.9765 38.6933 88.9765 38.128C88.9765 37.5413 88.8858 37.0187 88.7045 36.56C88.5338 36.0907 88.2832 35.6907 87.9525 35.36C87.6218 35.0293 87.2165 34.7787 86.7365 34.608C86.2672 34.4373 85.7285 34.352 85.1205 34.352H82.7045V32.24H84.9765C86.0325 32.24 86.9552 32.3947 87.7445 32.704C88.5338 33.0133 89.1898 33.44 89.7125 33.984C90.2352 34.5173 90.6245 35.1307 90.8805 35.824C91.1472 36.5067 91.2805 37.216 91.2805 37.952V38.304C91.2805 39.008 91.1472 39.7013 90.8805 40.384C90.6245 41.0667 90.2352 41.6853 89.7125 42.24C89.1898 42.7947 88.5338 43.2373 87.7445 43.568C86.9552 43.8987 86.0325 44.064 84.9765 44.064H82.7045ZM80.7525 44.064V32.24H83.0245V44.064H80.7525Z" fill="white"/>
<defs>
<linearGradient id="paint0_linear_228_935" x1="35" y1="13" x2="-1.7338" y2="14.8659" gradientUnits="userSpaceOnUse">
<stop stop-color="#E8C25F"/>
<stop offset="0.505208" stop-color="#F2E191"/>
<stop offset="1" stop-color="#D3A647"/>
</linearGradient>
<linearGradient id="paint1_linear_228_935" x1="35" y1="13" x2="-1.7338" y2="14.8659" gradientUnits="userSpaceOnUse">
<stop stop-color="#E8C25F"/>
<stop offset="0.505208" stop-color="#F2E191"/>
<stop offset="1" stop-color="#D3A647"/>
</linearGradient>
</defs>
</svg>
