<svg width="184" height="60" viewBox="0 0 184 60" fill="none" xmlns="http://www.w3.org/2000/svg">
<path fill-rule="evenodd" clip-rule="evenodd" d="M45.1064 19.8914C41.7107 14.0224 35.5065 10.4345 28.414 10.4345C17.6771 10.4345 9.30525 18.9268 9.30525 30.0351C9.30525 41.1433 17.6771 50.4902 28.414 50.4902C35.5065 50.4902 41.7107 46.2187 45.1064 40.3497H54.8384C50.8165 51.3026 40.4117 59.0877 28.414 59.0877C12.905 59.0877 0 46.0804 0 30.0351C0 13.9897 12.905 0.982422 28.414 0.982422C40.4117 0.982422 50.8165 8.93843 54.8384 19.8914L45.1064 19.8914ZM55.8506 26.6172V33.7949H37.5531C36.1204 37.5941 32.5341 40.289 28.3336 40.289C22.8728 40.289 18.446 35.7364 18.446 30.1205C18.446 24.5046 22.8728 19.9521 28.3336 19.9521C32.5973 19.9521 36.2304 22.7274 37.6186 26.6172H55.8506Z" fill="#FFE15B"/>
<path fill-rule="evenodd" clip-rule="evenodd" d="M45.1064 19.8914C41.7107 14.0224 35.5065 10.4345 28.414 10.4345C17.6771 10.4345 9.30525 18.9268 9.30525 30.0351C9.30525 41.1433 17.6771 50.4902 28.414 50.4902C35.5065 50.4902 41.7107 46.2187 45.1064 40.3497H54.8384C50.8165 51.3026 40.4117 59.0877 28.414 59.0877C12.905 59.0877 0 46.0804 0 30.0351C0 13.9897 12.905 0.982422 28.414 0.982422C40.4117 0.982422 50.8165 8.93843 54.8384 19.8914L45.1064 19.8914ZM55.8506 26.6172V33.7949H37.5531C36.1204 37.5941 32.5341 40.289 28.3336 40.289C22.8728 40.289 18.446 35.7364 18.446 30.1205C18.446 24.5046 22.8728 19.9521 28.3336 19.9521C32.5973 19.9521 36.2304 22.7274 37.6186 26.6172H55.8506Z" fill="url(#paint0_linear_228_486)"/>
<path d="M47.5999 30.0351C47.5999 41.184 38.84 50.3719 28.2426 50.3719C27.4922 50.3719 26.7509 50.4585 26.0213 50.3719V58.9992C26.7542 59.0578 27.495 59.0877 28.2426 59.0877C44.4266 59.0877 56.8026 45.8526 56.4853 30.0351C56.4853 28.9439 56.4268 27.8669 56.3129 26.807H47.3506C47.5146 27.8565 47.5999 28.9347 47.5999 30.0351Z" fill="#FFE15B"/>
<path d="M47.5999 30.0351C47.5999 41.184 38.84 50.3719 28.2426 50.3719C27.4922 50.3719 26.7509 50.4585 26.0213 50.3719V58.9992C26.7542 59.0578 27.495 59.0877 28.2426 59.0877C44.4266 59.0877 56.8026 45.8526 56.4853 30.0351C56.4853 28.9439 56.4268 27.8669 56.3129 26.807H47.3506C47.5146 27.8565 47.5999 28.9347 47.5999 30.0351Z" fill="url(#paint1_linear_228_486)"/>
<path d="M82.1221 26.5257C80.5037 26.5257 79.0748 26.2589 77.8352 25.7252C76.6128 25.1742 75.5799 24.4425 74.7363 23.5301C73.9099 22.6004 73.2815 21.5588 72.8511 20.4053C72.4379 19.2346 72.2313 18.0208 72.2313 16.764V16.1959C72.2313 15.008 72.4379 13.8459 72.8511 12.7096C73.2643 11.5733 73.8668 10.5489 74.6588 9.63646C75.4679 8.72399 76.4579 8.0009 77.6286 7.4672C78.8165 6.91627 80.1766 6.64081 81.7089 6.64081C83.3617 6.64081 84.825 6.9507 86.0991 7.57049C87.3731 8.17307 88.3974 9.02528 89.1722 10.1271C89.9469 11.2118 90.4032 12.4772 90.5409 13.9233H86.848C86.7275 13.1142 86.4262 12.4255 85.9441 11.8574C85.4621 11.272 84.8509 10.8244 84.1106 10.5145C83.3875 10.2046 82.5869 10.0497 81.7089 10.0497C80.8309 10.0497 80.0303 10.2046 79.3072 10.5145C78.6013 10.8244 77.9988 11.2634 77.4995 11.8315C77.0002 12.3997 76.6128 13.0797 76.3374 13.8717C76.0791 14.6636 75.95 15.5417 75.95 16.5058C75.95 17.556 76.0963 18.4943 76.389 19.3207C76.6817 20.1471 77.0949 20.8529 77.6286 21.4383C78.1623 22.0064 78.8079 22.4454 79.5654 22.7553C80.323 23.048 81.1752 23.1944 82.1221 23.1944C83.3789 23.1944 84.4807 22.9361 85.4276 22.4196C86.3745 21.8859 87.0632 21.1973 87.4936 20.3537L86.848 23.3235V18.4685H90.231V22.652C89.4218 23.8744 88.32 24.8299 86.9254 25.5186C85.5309 26.19 83.9298 26.5257 82.1221 26.5257ZM81.5281 19.1915V16.4541H91.8063V19.1915H81.5281ZM94.8802 26.0351V7.18313H98.5473V26.0351H94.8802ZM103.252 26.0351V7.054H106.919V26.0351H103.252ZM114.77 26.0351L108.985 17.8228H113.091L119.056 26.0351H114.77ZM105.834 19.7339V16.764H110.638C111.309 16.764 111.886 16.6263 112.368 16.3508C112.867 16.0754 113.255 15.688 113.53 15.1887C113.805 14.6895 113.943 14.1213 113.943 13.4843C113.943 12.8301 113.805 12.2533 113.53 11.7541C113.255 11.2548 112.867 10.8674 112.368 10.592C111.886 10.3165 111.309 10.1788 110.638 10.1788H105.834V7.054H110.25C111.765 7.054 113.074 7.27782 114.176 7.72544C115.295 8.17307 116.155 8.85311 116.758 9.76558C117.361 10.678 117.662 11.8229 117.662 13.2002V13.6134C117.662 15.008 117.352 16.1529 116.732 17.0481C116.13 17.9434 115.277 18.6148 114.176 19.0624C113.074 19.51 111.765 19.7339 110.25 19.7339H105.834ZM119.979 26.0351L126.409 7.18313H132.401L139.012 26.0351H135.241L129.637 9.68811L130.955 10.2562H127.726L129.069 9.68811L123.646 26.0351H119.979ZM124.473 21.0251L125.635 17.9261H133.279L134.415 21.0251H124.473ZM141.812 26.0351V7.18313H145.479V26.0351H141.812ZM144.963 18.1844V15.0854L152.503 15.0596V18.1586L144.963 18.1844ZM144.963 10.2821V7.18313H152.865V10.2821H144.963ZM156.263 26.0351V7.18313H159.93V26.0351H156.263ZM159.413 18.1844V15.0854L166.954 15.0596V18.1586L159.413 18.1844ZM159.413 10.2821V7.18313H167.316V10.2821H159.413ZM170.713 26.0351V7.18313H174.303V26.0351H170.713ZM173.787 26.0351V22.9361H182.334V26.0351H173.787ZM173.787 18.0036V14.9047H181.663V18.0036H173.787ZM173.787 10.2821V7.18313H182.128V10.2821H173.787ZM73.3417 52.0351V33.1831H77.0088V52.0351H73.3417ZM76.4923 44.1844V41.0854L84.0331 41.0596V44.1586L76.4923 44.1844ZM76.4923 36.2821V33.1831H84.3946V36.2821H76.4923ZM95.5656 52.5257C93.8095 52.5257 92.3289 52.19 91.1238 51.5186C89.9186 50.8471 88.9975 49.9088 88.3605 48.7037C87.7407 47.4813 87.4308 46.0524 87.4308 44.4168V33.1831H91.0979V44.6234C91.0979 45.5187 91.2701 46.3106 91.6144 46.9993C91.9587 47.6707 92.458 48.1958 93.1122 48.5746C93.7837 48.9361 94.6015 49.1169 95.5656 49.1169C96.5125 49.1169 97.313 48.9361 97.9673 48.5746C98.6387 48.1958 99.138 47.6707 99.4651 46.9993C99.8094 46.3278 99.9816 45.5359 99.9816 44.6234V33.1831H103.649V44.4168C103.649 46.0524 103.339 47.4813 102.719 48.7037C102.116 49.9088 101.213 50.8471 100.007 51.5186C98.8023 52.19 97.3216 52.5257 95.5656 52.5257ZM107.943 52.0351V33.1831H113.96L121.888 48.9878H122.74L122.224 49.4526V33.1831H125.684V52.0351H119.641L111.713 36.2304H110.835L111.351 35.7656V52.0351H107.943ZM133.488 52.1384V48.7295H137.387C138.369 48.7295 139.238 48.5832 139.996 48.2905C140.77 47.9806 141.425 47.5502 141.958 46.9993C142.492 46.4483 142.897 45.8027 143.172 45.0624C143.465 44.3049 143.611 43.4699 143.611 42.5574C143.611 41.6105 143.465 40.7669 143.172 40.0266C142.897 39.2691 142.492 38.6235 141.958 38.0898C141.425 37.5561 140.77 37.1515 139.996 36.876C139.238 36.6006 138.369 36.4628 137.387 36.4628H133.488V33.054H137.155C138.859 33.054 140.349 33.3036 141.623 33.8029C142.897 34.3022 143.955 34.9908 144.799 35.8689C145.643 36.7297 146.271 37.7196 146.684 38.8387C147.115 39.9406 147.33 41.0854 147.33 42.2734V42.8415C147.33 43.9778 147.115 45.0969 146.684 46.1987C146.271 47.3006 145.643 48.2991 144.799 49.1944C143.955 50.0896 142.897 50.8041 141.623 51.3378C140.349 51.8715 138.859 52.1384 137.155 52.1384H133.488ZM130.337 52.1384V33.054H134.004V52.1384H130.337Z" fill="white"/>
<defs>
<linearGradient id="paint0_linear_228_486" x1="56.4912" y1="0.982455" x2="-2.79841" y2="3.99399" gradientUnits="userSpaceOnUse">
<stop stop-color="#E8C25F"/>
<stop offset="0.505208" stop-color="#F2E191"/>
<stop offset="1" stop-color="#D3A647"/>
</linearGradient>
<linearGradient id="paint1_linear_228_486" x1="56.4912" y1="0.982455" x2="-2.79841" y2="3.99399" gradientUnits="userSpaceOnUse">
<stop stop-color="#E8C25F"/>
<stop offset="0.505208" stop-color="#F2E191"/>
<stop offset="1" stop-color="#D3A647"/>
</linearGradient>
</defs>
</svg>
