<svg width="100" height="100" viewBox="0 0 100 100" fill="none" xmlns="http://www.w3.org/2000/svg">
<g filter="url(#filter0_d_228_494)">
<rect x="18.7869" y="18.7869" width="62.4262" height="62.4262" rx="31.2131" stroke="#E9C564" stroke-width="1.57377" shape-rendering="crispEdges"/>
<path d="M50.006 41.2695C45.1851 41.2695 41.2822 45.1766 41.2822 49.9932C41.2822 54.814 45.1893 58.7168 50.006 58.7168C54.8269 58.7168 58.7298 54.8098 58.7298 49.9932C58.7298 45.1723 54.8227 41.2695 50.006 41.2695ZM50.006 55.6555C46.8766 55.6555 44.3436 53.1211 44.3436 49.9932C44.3436 46.8652 46.878 44.3308 50.006 44.3308C53.134 44.3308 55.6684 46.8652 55.6684 49.9932C55.6698 53.1211 53.1354 55.6555 50.006 55.6555Z" fill="#E9C564"/>
<path d="M57.01 33.1068C53.882 32.9609 46.1342 32.968 43.0034 33.1068C40.2522 33.2357 37.8255 33.9001 35.8691 35.8565C32.5994 39.1261 33.0173 43.5319 33.0173 49.9932C33.0173 56.6061 32.649 60.9098 35.8691 64.1298C39.1515 67.4108 43.6211 66.9815 50.006 66.9815C56.5567 66.9815 58.8177 66.9858 61.1339 66.0891C64.2832 64.8665 66.6603 62.0516 66.8927 56.9956C67.04 53.8663 67.0315 46.1201 66.8927 42.9893C66.6122 37.021 63.4091 33.4015 57.01 33.1068ZM61.9612 61.9666C59.8178 64.11 56.8442 63.9188 49.9649 63.9188C42.8816 63.9188 40.0412 64.0236 37.9686 61.9454C35.5815 59.5697 36.0136 55.7547 36.0136 49.9705C36.0136 42.1436 35.2103 36.5067 43.0657 36.1044C44.8706 36.0407 45.4018 36.0194 49.9451 36.0194L50.0088 36.0619C57.5582 36.0619 63.4813 35.2714 63.8369 43.1253C63.9177 44.9173 63.9361 45.4557 63.9361 49.9918C63.9347 56.9928 64.0678 59.8502 61.9612 61.9666Z" fill="#E9C564"/>
<path d="M59.0755 42.9638C60.2014 42.9638 61.1141 42.0511 61.1141 40.9252C61.1141 39.7994 60.2014 38.8867 59.0755 38.8867C57.9496 38.8867 57.0369 39.7994 57.0369 40.9252C57.0369 42.0511 57.9496 42.9638 59.0755 42.9638Z" fill="#E9C564"/>
</g>
<defs>
<filter id="filter0_d_228_494" x="0.688526" y="0.688526" width="98.6229" height="98.6229" filterUnits="userSpaceOnUse" color-interpolation-filters="sRGB">
<feFlood flood-opacity="0" result="BackgroundImageFix"/>
<feColorMatrix in="SourceAlpha" type="matrix" values="0 0 0 0 0 0 0 0 0 0 0 0 0 0 0 0 0 0 127 0" result="hardAlpha"/>
<feOffset/>
<feGaussianBlur stdDeviation="8.65574"/>
<feComposite in2="hardAlpha" operator="out"/>
<feColorMatrix type="matrix" values="0 0 0 0 1 0 0 0 0 0.894118 0 0 0 0 0.345098 0 0 0 1 0"/>
<feBlend mode="normal" in2="BackgroundImageFix" result="effect1_dropShadow_228_494"/>
<feBlend mode="normal" in="SourceGraphic" in2="effect1_dropShadow_228_494" result="shape"/>
</filter>
</defs>
</svg>
